<svg xmlns="http://www.w3.org/2000/svg" width="68.9" height="256" viewBox="0 0 68.9 256"><path d="M35 54C20.1 54 7.9 41.9 7.8 27.1 7.8 12.5 20.3-.1 34.9 0c14.5.1 26.8 12.4 26.9 26.8.1 14.9-12 27.1-26.8 27.2m-.2-18c5 0 8.9-3.7 9-8.7.1-5.1-4.1-9.3-9.1-9.2-4.9.1-8.7 4.1-8.7 9.1s3.7 8.7 8.8 8.8m-.6 198.5c6.3-6.4 11.9-12.1 17.6-17.6 1.7-1.6 4-3.2 6.2-3.7 4.1-1 7.6.6 9.7 4.4 2 3.7 1.3 7.2-1.5 10.1-8.5 8.7-17.1 17.3-25.8 25.8-3.5 3.4-8 3.5-11.7 0-8.9-8.5-17.7-17.2-26.3-26-3.4-3.5-3.2-8.2 0-11.7 3.1-3.5 9-4 12.7-.8 3.6 3.2 6.9 6.7 10.3 10.2 2.9 2.8 5.5 5.8 8.8 9.3m-7.9-53.2c0-5.5 3-8.5 8.2-8.4 5.6 0 9.1 3.5 9.1 9 0 5.2-3.6 8.6-9 8.5-5.3-.1-8.3-3.4-8.3-9.1m8.4-37.3c-5-.1-8.9-4-8.9-8.9 0-4.8 4-9 8.8-9.1 5-.1 9.3 4.3 9.1 9.3 0 4.9-4 8.7-9 8.7m-8-56c0-5.5 2.8-8.7 7.9-8.8 5.6-.1 9.2 3.4 9.3 8.8.1 5.4-3.2 8.7-8.7 8.8-5.4 0-8.4-3.1-8.5-8.8" fill="#fff"/></svg>